<svg width="85" height="40" viewBox="0 0 85 40" fill="none" xmlns="http://www.w3.org/2000/svg">
<path d="M15.1254 12.336C14.5654 11.648 13.8934 11.112 13.1094 10.728C12.3254 10.328 11.5414 10.128 10.7574 10.128C10.0374 10.128 9.36538 10.264 8.74138 10.536C8.13338 10.808 7.58938 11.192 7.10938 11.688C6.64538 12.168 6.28538 12.736 6.02938 13.392C5.77338 14.048 5.64538 14.76 5.64538 15.528C5.64538 16.28 5.77338 16.984 6.02938 17.64C6.28538 18.296 6.64538 18.872 7.10938 19.368C7.58938 19.848 8.13338 20.232 8.74138 20.52C9.36538 20.792 10.0374 20.928 10.7574 20.928C11.5254 20.928 12.2934 20.752 13.0614 20.4C13.8294 20.032 14.5174 19.544 15.1254 18.936L17.3574 21.264C16.7654 21.872 16.0934 22.4 15.3414 22.848C14.6054 23.296 13.8294 23.648 13.0134 23.904C12.1974 24.144 11.3814 24.264 10.5654 24.264C9.30138 24.264 8.13338 24.048 7.06138 23.616C6.00538 23.168 5.07738 22.552 4.27737 21.768C3.49338 20.968 2.87738 20.04 2.42938 18.984C1.98138 17.928 1.75738 16.784 1.75738 15.552C1.75738 14.336 1.98138 13.208 2.42938 12.168C2.87738 11.128 3.50938 10.216 4.32538 9.432C5.14138 8.648 6.08538 8.04 7.15738 7.608C8.24538 7.176 9.42938 6.96 10.7094 6.96C11.5254 6.96 12.3334 7.072 13.1334 7.296C13.9494 7.52 14.7094 7.84 15.4134 8.256C16.1334 8.656 16.7734 9.152 17.3334 9.744L15.1254 12.336ZM26.9174 7.2C29.1094 7.2 30.8054 7.712 32.0054 8.736C33.2214 9.744 33.8294 11.168 33.8294 13.008C33.8294 14.944 33.2214 16.456 32.0054 17.544C30.8054 18.616 29.1094 19.152 26.9174 19.152H23.4134V24H19.6214V7.2H26.9174ZM26.9174 16.08C27.9574 16.08 28.7654 15.84 29.3414 15.36C29.9334 14.864 30.2294 14.12 30.2294 13.128C30.2294 12.168 29.9334 11.448 29.3414 10.968C28.7654 10.488 27.9574 10.248 26.9174 10.248H23.4134V16.08H26.9174ZM26.4614 17.736H30.1574L34.2374 24H29.9414L26.4614 17.736ZM36.9886 7.2H49.7806V10.248H40.7806V14.04H48.8686V17.088H40.7806V20.952H50.0446V24H36.9886V7.2ZM51.1719 7.2H55.2519L59.3319 21.648H58.4679L62.5239 7.2H66.2439L70.3479 21.648H69.4839L73.5159 7.2H77.4279L71.7399 24H67.8279L63.8679 10.224L64.7559 10.248L60.7239 24H56.8359L51.1719 7.2Z" fill="#0056D2"/>
<path d="M23.1061 29H24.4461V32.02H27.9361V29H29.2861V36H27.9361V33.13H24.4461V36H23.1061V29ZM31.0065 29H36.1365V30.12H32.3465V31.93H35.7465V33.04H32.3465V34.88H36.2565V36H31.0065V29ZM37.6178 29H38.9578V34.86H41.9778V36H37.6178V29ZM45.888 29C46.7746 29 47.4613 29.21 47.948 29.63C48.4346 30.05 48.678 30.64 48.678 31.4C48.678 32.1933 48.4346 32.81 47.948 33.25C47.4613 33.69 46.7746 33.91 45.888 33.91H43.778L44.368 33.32V36H43.028V29H45.888ZM45.828 32.8C46.328 32.8 46.7113 32.6867 46.978 32.46C47.2513 32.2333 47.388 31.89 47.388 31.43C47.388 30.99 47.2513 30.6633 46.978 30.45C46.7113 30.23 46.328 30.12 45.828 30.12H43.778L44.368 29.53V33.39L43.778 32.8H45.828ZM49.776 29H54.906V30.12H51.116V31.93H54.516V33.04H51.116V34.88H55.026V36H49.776V29ZM59.3073 29C60.214 29 60.914 29.21 61.4073 29.63C61.9007 30.05 62.1473 30.64 62.1473 31.4C62.1473 32.1933 61.9007 32.81 61.4073 33.25C60.914 33.69 60.214 33.91 59.3073 33.91H57.7273V36H56.3873V29H59.3073ZM59.3073 32.8C59.8073 32.8 60.194 32.6867 60.4673 32.46C60.7407 32.2333 60.8773 31.89 60.8773 31.43C60.8773 30.99 60.7407 30.6633 60.4673 30.45C60.194 30.23 59.8073 30.12 59.3073 30.12H57.7273V32.8H59.3073ZM59.2573 33.4H60.5673L62.2873 36H60.7673L59.2573 33.4Z" fill="white"/>
<path d="M34.8008 6.09769L35.4459 8.80221L36.028 8.35343C35.9925 6.29878 36.0145 6.52849 35.9936 5.34497L37.5615 4.34809C37.7894 4.20315 37.755 3.90068 37.6071 3.67372C37.4645 3.44349 37.2051 3.28417 36.9772 3.42911L35.4096 4.42583C34.3467 3.90475 34.5452 4.02207 32.6997 3.11821L32.0462 3.45488L34.2216 5.1864C34.2216 5.1864 32.2843 6.40966 32.2576 6.43392L31.2777 5.94237L30.9051 6.17929L31.856 6.9993L32.1555 7.47038L32.4948 8.67959L32.8673 8.44275L32.8377 7.34664C32.8714 7.33288 34.8008 6.09769 34.8008 6.09769Z" fill="white"/>
</svg>
