<svg xmlns="http://www.w3.org/2000/svg" xmlns:xlink="http://www.w3.org/1999/xlink" width="58" zoomAndPan="magnify" viewBox="0 0 43.5 45.749999" height="61" preserveAspectRatio="xMidYMid meet" version="1.0"><defs><g/></defs><g fill="#000000" fill-opacity="0.4"><g transform="translate(7.352724, 31.441907)"><g><path d="M 8.640625 -14.796875 C 8.359375 -14.796875 8.117188 -14.75 7.921875 -14.65625 C 7.734375 -14.570312 7.601562 -14.492188 7.53125 -14.421875 C 7.28125 -14.160156 6.984375 -13.394531 6.640625 -12.125 C 6.304688 -10.851562 6.140625 -9.101562 6.140625 -6.875 C 6.140625 -6.1875 6.207031 -5.65625 6.34375 -5.28125 C 6.488281 -4.914062 6.671875 -4.660156 6.890625 -4.515625 C 7.109375 -4.367188 7.332031 -4.28125 7.5625 -4.25 C 7.800781 -4.226562 8.023438 -4.21875 8.234375 -4.21875 C 8.515625 -4.21875 8.828125 -4.316406 9.171875 -4.515625 C 9.515625 -4.710938 9.90625 -4.988281 10.34375 -5.34375 C 10.488281 -5.445312 10.675781 -5.628906 10.90625 -5.890625 C 11.144531 -6.160156 11.410156 -6.410156 11.703125 -6.640625 C 11.992188 -6.878906 12.28125 -7.007812 12.5625 -7.03125 C 12.84375 -7.050781 13.097656 -6.859375 13.328125 -6.453125 L 14.078125 -4.46875 C 14.203125 -4.082031 14.238281 -3.707031 14.1875 -3.34375 C 14.132812 -2.976562 13.976562 -2.632812 13.71875 -2.3125 C 13.332031 -1.84375 12.910156 -1.390625 12.453125 -0.953125 C 11.992188 -0.523438 11.425781 -0.175781 10.75 0.09375 C 10.070312 0.363281 9.207031 0.5 8.15625 0.5 C 6.695312 0.5 5.410156 0.238281 4.296875 -0.28125 C 3.179688 -0.8125 2.316406 -1.671875 1.703125 -2.859375 C 1.097656 -4.046875 0.796875 -5.613281 0.796875 -7.5625 C 0.796875 -9.75 1.082031 -11.6875 1.65625 -13.375 C 2.238281 -15.070312 3.0625 -16.40625 4.125 -17.375 C 5.195312 -18.351562 6.453125 -18.863281 7.890625 -18.90625 C 8.953125 -18.9375 9.945312 -18.867188 10.875 -18.703125 C 11.800781 -18.535156 12.5625 -18.273438 13.15625 -17.921875 C 13.40625 -17.785156 13.675781 -17.632812 13.96875 -17.46875 C 14.257812 -17.300781 14.503906 -17.082031 14.703125 -16.8125 C 14.898438 -16.550781 14.972656 -16.1875 14.921875 -15.71875 C 14.867188 -15.15625 14.769531 -14.441406 14.625 -13.578125 C 14.476562 -12.722656 14.070312 -11.8125 13.40625 -10.84375 C 13.332031 -10.738281 13.207031 -10.582031 13.03125 -10.375 C 12.851562 -10.164062 12.585938 -10.003906 12.234375 -9.890625 C 11.890625 -9.785156 11.410156 -9.820312 10.796875 -10 C 10.148438 -10.144531 9.773438 -10.34375 9.671875 -10.59375 C 9.578125 -10.851562 9.617188 -11.269531 9.796875 -11.84375 C 10.035156 -12.664062 10.050781 -13.363281 9.84375 -13.9375 C 9.632812 -14.507812 9.234375 -14.796875 8.640625 -14.796875 Z M 8.640625 -14.796875 "/></g></g></g><g fill="#ffffff" fill-opacity="1"><g transform="translate(6.188848, 30.27803)"><g><path d="M 8.640625 -14.796875 C 8.359375 -14.796875 8.117188 -14.75 7.921875 -14.65625 C 7.734375 -14.570312 7.601562 -14.492188 7.53125 -14.421875 C 7.28125 -14.160156 6.984375 -13.394531 6.640625 -12.125 C 6.304688 -10.851562 6.140625 -9.101562 6.140625 -6.875 C 6.140625 -6.1875 6.207031 -5.65625 6.34375 -5.28125 C 6.488281 -4.914062 6.671875 -4.660156 6.890625 -4.515625 C 7.109375 -4.367188 7.332031 -4.28125 7.5625 -4.25 C 7.800781 -4.226562 8.023438 -4.21875 8.234375 -4.21875 C 8.515625 -4.21875 8.828125 -4.316406 9.171875 -4.515625 C 9.515625 -4.710938 9.90625 -4.988281 10.34375 -5.34375 C 10.488281 -5.445312 10.675781 -5.628906 10.90625 -5.890625 C 11.144531 -6.160156 11.410156 -6.410156 11.703125 -6.640625 C 11.992188 -6.878906 12.28125 -7.007812 12.5625 -7.03125 C 12.84375 -7.050781 13.097656 -6.859375 13.328125 -6.453125 L 14.078125 -4.46875 C 14.203125 -4.082031 14.238281 -3.707031 14.1875 -3.34375 C 14.132812 -2.976562 13.976562 -2.632812 13.71875 -2.3125 C 13.332031 -1.84375 12.910156 -1.390625 12.453125 -0.953125 C 11.992188 -0.523438 11.425781 -0.175781 10.75 0.09375 C 10.070312 0.363281 9.207031 0.5 8.15625 0.5 C 6.695312 0.5 5.410156 0.238281 4.296875 -0.28125 C 3.179688 -0.8125 2.316406 -1.671875 1.703125 -2.859375 C 1.097656 -4.046875 0.796875 -5.613281 0.796875 -7.5625 C 0.796875 -9.75 1.082031 -11.6875 1.65625 -13.375 C 2.238281 -15.070312 3.0625 -16.40625 4.125 -17.375 C 5.195312 -18.351562 6.453125 -18.863281 7.890625 -18.90625 C 8.953125 -18.9375 9.945312 -18.867188 10.875 -18.703125 C 11.800781 -18.535156 12.5625 -18.273438 13.15625 -17.921875 C 13.40625 -17.785156 13.675781 -17.632812 13.96875 -17.46875 C 14.257812 -17.300781 14.503906 -17.082031 14.703125 -16.8125 C 14.898438 -16.550781 14.972656 -16.1875 14.921875 -15.71875 C 14.867188 -15.15625 14.769531 -14.441406 14.625 -13.578125 C 14.476562 -12.722656 14.070312 -11.8125 13.40625 -10.84375 C 13.332031 -10.738281 13.207031 -10.582031 13.03125 -10.375 C 12.851562 -10.164062 12.585938 -10.003906 12.234375 -9.890625 C 11.890625 -9.785156 11.410156 -9.820312 10.796875 -10 C 10.148438 -10.144531 9.773438 -10.34375 9.671875 -10.59375 C 9.578125 -10.851562 9.617188 -11.269531 9.796875 -11.84375 C 10.035156 -12.664062 10.050781 -13.363281 9.84375 -13.9375 C 9.632812 -14.507812 9.234375 -14.796875 8.640625 -14.796875 Z M 8.640625 -14.796875 "/></g></g></g><g fill="#000000" fill-opacity="0.4"><g transform="translate(20.522201, 31.151936)"><g><path d="M 15.421875 -15.875 C 15.304688 -15.1875 15.164062 -14.257812 15 -13.09375 C 14.832031 -11.925781 14.664062 -10.617188 14.5 -9.171875 C 14.332031 -7.722656 14.195312 -6.234375 14.09375 -4.703125 C 13.988281 -3.179688 13.9375 -1.722656 13.9375 -0.328125 C 13.9375 0.00390625 13.75 0.171875 13.375 0.171875 C 12.851562 0.171875 12.3125 0.0976562 11.75 -0.046875 C 11.195312 -0.203125 10.703125 -0.394531 10.265625 -0.625 C 9.828125 -0.851562 9.515625 -1.085938 9.328125 -1.328125 C 9.171875 -1.535156 9.09375 -1.800781 9.09375 -2.125 C 9.09375 -2.6875 9.113281 -3.347656 9.15625 -4.109375 C 9.207031 -4.878906 9.265625 -5.679688 9.328125 -6.515625 C 8.898438 -6.472656 8.445312 -6.4375 7.96875 -6.40625 C 7.5 -6.375 7.007812 -6.34375 6.5 -6.3125 C 6.414062 -5.289062 6.347656 -4.269531 6.296875 -3.25 C 6.242188 -2.238281 6.21875 -1.265625 6.21875 -0.328125 C 6.21875 0.00390625 6.03125 0.171875 5.65625 0.171875 C 5.132812 0.171875 4.597656 0.0976562 4.046875 -0.046875 C 3.492188 -0.203125 2.992188 -0.394531 2.546875 -0.625 C 2.097656 -0.851562 1.78125 -1.085938 1.59375 -1.328125 C 1.4375 -1.535156 1.359375 -1.800781 1.359375 -2.125 C 1.359375 -2.789062 1.382812 -3.582031 1.4375 -4.5 C 1.488281 -5.414062 1.570312 -6.382812 1.6875 -7.40625 C 1.4375 -7.769531 1.210938 -8.15625 1.015625 -8.5625 C 0.816406 -8.976562 0.71875 -9.289062 0.71875 -9.5 C 0.71875 -9.738281 0.828125 -9.859375 1.046875 -9.859375 L 1.953125 -9.859375 C 2.078125 -10.921875 2.203125 -11.925781 2.328125 -12.875 C 2.453125 -13.820312 2.570312 -14.632812 2.6875 -15.3125 C 2.800781 -16 2.890625 -16.460938 2.953125 -16.703125 C 2.984375 -16.816406 3.039062 -16.921875 3.125 -17.015625 C 3.21875 -17.109375 3.359375 -17.15625 3.546875 -17.15625 C 3.816406 -17.15625 4.203125 -17.125 4.703125 -17.0625 C 5.203125 -17 5.6875 -16.921875 6.15625 -16.828125 C 6.632812 -16.742188 6.976562 -16.664062 7.1875 -16.59375 C 7.375 -16.519531 7.507812 -16.425781 7.59375 -16.3125 C 7.6875 -16.207031 7.71875 -16.0625 7.6875 -15.875 C 7.570312 -15.269531 7.4375 -14.457031 7.28125 -13.4375 C 7.132812 -12.425781 6.992188 -11.300781 6.859375 -10.0625 L 9.734375 -10.25 C 9.859375 -11.269531 9.976562 -12.226562 10.09375 -13.125 C 10.21875 -14.019531 10.332031 -14.785156 10.4375 -15.421875 C 10.539062 -16.054688 10.625 -16.484375 10.6875 -16.703125 C 10.71875 -16.816406 10.773438 -16.921875 10.859375 -17.015625 C 10.953125 -17.109375 11.09375 -17.15625 11.28125 -17.15625 C 11.46875 -17.15625 11.734375 -17.132812 12.078125 -17.09375 C 12.421875 -17.050781 12.78125 -17.003906 13.15625 -16.953125 C 13.539062 -16.898438 13.890625 -16.84375 14.203125 -16.78125 C 14.523438 -16.71875 14.765625 -16.65625 14.921875 -16.59375 C 15.097656 -16.519531 15.234375 -16.425781 15.328125 -16.3125 C 15.421875 -16.207031 15.453125 -16.0625 15.421875 -15.875 Z M 15.421875 -15.875 "/></g></g></g><g fill="#ffffff" fill-opacity="1"><g transform="translate(19.470679, 30.100415)"><g><path d="M 15.421875 -15.875 C 15.304688 -15.1875 15.164062 -14.257812 15 -13.09375 C 14.832031 -11.925781 14.664062 -10.617188 14.5 -9.171875 C 14.332031 -7.722656 14.195312 -6.234375 14.09375 -4.703125 C 13.988281 -3.179688 13.9375 -1.722656 13.9375 -0.328125 C 13.9375 0.00390625 13.75 0.171875 13.375 0.171875 C 12.851562 0.171875 12.3125 0.0976562 11.75 -0.046875 C 11.195312 -0.203125 10.703125 -0.394531 10.265625 -0.625 C 9.828125 -0.851562 9.515625 -1.085938 9.328125 -1.328125 C 9.171875 -1.535156 9.09375 -1.800781 9.09375 -2.125 C 9.09375 -2.6875 9.113281 -3.347656 9.15625 -4.109375 C 9.207031 -4.878906 9.265625 -5.679688 9.328125 -6.515625 C 8.898438 -6.472656 8.445312 -6.4375 7.96875 -6.40625 C 7.5 -6.375 7.007812 -6.34375 6.5 -6.3125 C 6.414062 -5.289062 6.347656 -4.269531 6.296875 -3.25 C 6.242188 -2.238281 6.21875 -1.265625 6.21875 -0.328125 C 6.21875 0.00390625 6.03125 0.171875 5.65625 0.171875 C 5.132812 0.171875 4.597656 0.0976562 4.046875 -0.046875 C 3.492188 -0.203125 2.992188 -0.394531 2.546875 -0.625 C 2.097656 -0.851562 1.78125 -1.085938 1.59375 -1.328125 C 1.4375 -1.535156 1.359375 -1.800781 1.359375 -2.125 C 1.359375 -2.789062 1.382812 -3.582031 1.4375 -4.5 C 1.488281 -5.414062 1.570312 -6.382812 1.6875 -7.40625 C 1.4375 -7.769531 1.210938 -8.15625 1.015625 -8.5625 C 0.816406 -8.976562 0.71875 -9.289062 0.71875 -9.5 C 0.71875 -9.738281 0.828125 -9.859375 1.046875 -9.859375 L 1.953125 -9.859375 C 2.078125 -10.921875 2.203125 -11.925781 2.328125 -12.875 C 2.453125 -13.820312 2.570312 -14.632812 2.6875 -15.3125 C 2.800781 -16 2.890625 -16.460938 2.953125 -16.703125 C 2.984375 -16.816406 3.039062 -16.921875 3.125 -17.015625 C 3.21875 -17.109375 3.359375 -17.15625 3.546875 -17.15625 C 3.816406 -17.15625 4.203125 -17.125 4.703125 -17.0625 C 5.203125 -17 5.6875 -16.921875 6.15625 -16.828125 C 6.632812 -16.742188 6.976562 -16.664062 7.1875 -16.59375 C 7.375 -16.519531 7.507812 -16.425781 7.59375 -16.3125 C 7.6875 -16.207031 7.71875 -16.0625 7.6875 -15.875 C 7.570312 -15.269531 7.4375 -14.457031 7.28125 -13.4375 C 7.132812 -12.425781 6.992188 -11.300781 6.859375 -10.0625 L 9.734375 -10.25 C 9.859375 -11.269531 9.976562 -12.226562 10.09375 -13.125 C 10.21875 -14.019531 10.332031 -14.785156 10.4375 -15.421875 C 10.539062 -16.054688 10.625 -16.484375 10.6875 -16.703125 C 10.71875 -16.816406 10.773438 -16.921875 10.859375 -17.015625 C 10.953125 -17.109375 11.09375 -17.15625 11.28125 -17.15625 C 11.46875 -17.15625 11.734375 -17.132812 12.078125 -17.09375 C 12.421875 -17.050781 12.78125 -17.003906 13.15625 -16.953125 C 13.539062 -16.898438 13.890625 -16.84375 14.203125 -16.78125 C 14.523438 -16.71875 14.765625 -16.65625 14.921875 -16.59375 C 15.097656 -16.519531 15.234375 -16.425781 15.328125 -16.3125 C 15.421875 -16.207031 15.453125 -16.0625 15.421875 -15.875 Z M 15.421875 -15.875 "/></g></g></g></svg>
