<svg xmlns="http://www.w3.org/2000/svg" xmlns:xlink="http://www.w3.org/1999/xlink" width="500" zoomAndPan="magnify" viewBox="0 0 375 374.999991" height="500" preserveAspectRatio="xMidYMid meet" version="1.0"><defs><g/><clipPath id="2d30ebae49"><path d="M 45.292969 136.792969 L 96.59375 136.792969 L 96.59375 187.5 L 45.292969 187.5 Z M 45.292969 136.792969 " clip-rule="nonzero"/></clipPath><clipPath id="7540476766"><path d="M 70.875 136.792969 C 56.746094 136.792969 45.292969 148.144531 45.292969 162.148438 C 45.292969 176.148438 56.746094 187.5 70.875 187.5 C 85.003906 187.5 96.457031 176.148438 96.457031 162.148438 C 96.457031 148.144531 85.003906 136.792969 70.875 136.792969 Z M 70.875 136.792969 " clip-rule="nonzero"/></clipPath></defs><g fill="#000000" fill-opacity="0.4"><g transform="translate(85.861844, 228.745672)"><g><path d="M 52.640625 -90.1875 C 50.921875 -90.1875 49.472656 -89.914062 48.296875 -89.375 C 47.117188 -88.84375 46.316406 -88.363281 45.890625 -87.9375 C 44.390625 -86.332031 42.597656 -81.648438 40.515625 -73.890625 C 38.429688 -66.140625 37.390625 -55.46875 37.390625 -41.875 C 37.390625 -37.707031 37.816406 -34.5 38.671875 -32.25 C 39.523438 -30.007812 40.617188 -28.429688 41.953125 -27.515625 C 43.296875 -26.609375 44.6875 -26.070312 46.125 -25.90625 C 47.570312 -25.75 48.941406 -25.671875 50.234375 -25.671875 C 51.941406 -25.671875 53.835938 -26.285156 55.921875 -27.515625 C 58.003906 -28.742188 60.382812 -30.429688 63.0625 -32.578125 C 63.914062 -33.210938 65.066406 -34.332031 66.515625 -35.9375 C 67.960938 -37.550781 69.566406 -39.078125 71.328125 -40.515625 C 73.085938 -41.960938 74.820312 -42.738281 76.53125 -42.84375 C 78.25 -42.945312 79.804688 -41.769531 81.203125 -39.3125 L 85.84375 -27.28125 C 86.59375 -24.925781 86.804688 -22.625 86.484375 -20.375 C 86.171875 -18.132812 85.210938 -16.050781 83.609375 -14.125 C 81.253906 -11.226562 78.6875 -8.46875 75.90625 -5.84375 C 73.125 -3.226562 69.671875 -1.09375 65.546875 0.5625 C 61.429688 2.21875 56.164062 3.046875 49.75 3.046875 C 40.863281 3.046875 33.023438 1.441406 26.234375 -1.765625 C 19.441406 -4.972656 14.171875 -10.1875 10.421875 -17.40625 C 6.679688 -24.632812 4.8125 -34.179688 4.8125 -46.046875 C 4.8125 -59.421875 6.578125 -71.269531 10.109375 -81.59375 C 13.640625 -91.914062 18.664062 -100.046875 25.1875 -105.984375 C 31.71875 -111.921875 39.367188 -115 48.140625 -115.21875 C 54.554688 -115.425781 60.597656 -115.019531 66.265625 -114 C 71.941406 -112.988281 76.597656 -111.414062 80.234375 -109.28125 C 81.734375 -108.425781 83.363281 -107.488281 85.125 -106.46875 C 86.894531 -105.457031 88.394531 -104.144531 89.625 -102.53125 C 90.851562 -100.925781 91.304688 -98.679688 90.984375 -95.796875 C 90.660156 -92.378906 90.046875 -88.046875 89.140625 -82.796875 C 88.234375 -77.554688 85.742188 -71.992188 81.671875 -66.109375 C 81.242188 -65.472656 80.492188 -64.507812 79.421875 -63.21875 C 78.359375 -61.9375 76.753906 -60.972656 74.609375 -60.328125 C 72.472656 -59.691406 69.535156 -59.910156 65.796875 -60.984375 C 61.835938 -61.835938 59.5625 -63.039062 58.96875 -64.59375 C 58.382812 -66.144531 58.625 -68.6875 59.6875 -72.21875 C 61.1875 -77.238281 61.296875 -81.488281 60.015625 -84.96875 C 58.734375 -88.445312 56.273438 -90.1875 52.640625 -90.1875 Z M 52.640625 -90.1875 "/></g></g></g><g fill="#000000" fill-opacity="1"><g transform="translate(78.769943, 221.653766)"><g><path d="M 52.640625 -90.1875 C 50.921875 -90.1875 49.472656 -89.914062 48.296875 -89.375 C 47.117188 -88.84375 46.316406 -88.363281 45.890625 -87.9375 C 44.390625 -86.332031 42.597656 -81.648438 40.515625 -73.890625 C 38.429688 -66.140625 37.390625 -55.46875 37.390625 -41.875 C 37.390625 -37.707031 37.816406 -34.5 38.671875 -32.25 C 39.523438 -30.007812 40.617188 -28.429688 41.953125 -27.515625 C 43.296875 -26.609375 44.6875 -26.070312 46.125 -25.90625 C 47.570312 -25.75 48.941406 -25.671875 50.234375 -25.671875 C 51.941406 -25.671875 53.835938 -26.285156 55.921875 -27.515625 C 58.003906 -28.742188 60.382812 -30.429688 63.0625 -32.578125 C 63.914062 -33.210938 65.066406 -34.332031 66.515625 -35.9375 C 67.960938 -37.550781 69.566406 -39.078125 71.328125 -40.515625 C 73.085938 -41.960938 74.820312 -42.738281 76.53125 -42.84375 C 78.25 -42.945312 79.804688 -41.769531 81.203125 -39.3125 L 85.84375 -27.28125 C 86.59375 -24.925781 86.804688 -22.625 86.484375 -20.375 C 86.171875 -18.132812 85.210938 -16.050781 83.609375 -14.125 C 81.253906 -11.226562 78.6875 -8.46875 75.90625 -5.84375 C 73.125 -3.226562 69.671875 -1.09375 65.546875 0.5625 C 61.429688 2.21875 56.164062 3.046875 49.75 3.046875 C 40.863281 3.046875 33.023438 1.441406 26.234375 -1.765625 C 19.441406 -4.972656 14.171875 -10.1875 10.421875 -17.40625 C 6.679688 -24.632812 4.8125 -34.179688 4.8125 -46.046875 C 4.8125 -59.421875 6.578125 -71.269531 10.109375 -81.59375 C 13.640625 -91.914062 18.664062 -100.046875 25.1875 -105.984375 C 31.71875 -111.921875 39.367188 -115 48.140625 -115.21875 C 54.554688 -115.425781 60.597656 -115.019531 66.265625 -114 C 71.941406 -112.988281 76.597656 -111.414062 80.234375 -109.28125 C 81.734375 -108.425781 83.363281 -107.488281 85.125 -106.46875 C 86.894531 -105.457031 88.394531 -104.144531 89.625 -102.53125 C 90.851562 -100.925781 91.304688 -98.679688 90.984375 -95.796875 C 90.660156 -92.378906 90.046875 -88.046875 89.140625 -82.796875 C 88.234375 -77.554688 85.742188 -71.992188 81.671875 -66.109375 C 81.242188 -65.472656 80.492188 -64.507812 79.421875 -63.21875 C 78.359375 -61.9375 76.753906 -60.972656 74.609375 -60.328125 C 72.472656 -59.691406 69.535156 -59.910156 65.796875 -60.984375 C 61.835938 -61.835938 59.5625 -63.039062 58.96875 -64.59375 C 58.382812 -66.144531 58.625 -68.6875 59.6875 -72.21875 C 61.1875 -77.238281 61.296875 -81.488281 60.015625 -84.96875 C 58.734375 -88.445312 56.273438 -90.1875 52.640625 -90.1875 Z M 52.640625 -90.1875 "/></g></g></g><g fill="#000000" fill-opacity="0.4"><g transform="translate(166.108044, 226.978785)"><g><path d="M 93.9375 -96.6875 C 93.257812 -92.53125 92.410156 -86.898438 91.390625 -79.796875 C 90.378906 -72.703125 89.367188 -64.734375 88.359375 -55.890625 C 87.347656 -47.046875 86.523438 -37.984375 85.890625 -28.703125 C 85.265625 -19.421875 84.953125 -10.53125 84.953125 -2.03125 C 84.953125 0 83.789062 1.015625 81.46875 1.015625 C 78.28125 1.015625 74.992188 0.554688 71.609375 -0.359375 C 68.234375 -1.273438 65.210938 -2.429688 62.546875 -3.828125 C 59.890625 -5.234375 57.984375 -6.664062 56.828125 -8.125 C 55.859375 -9.375 55.375 -10.96875 55.375 -12.90625 C 55.375 -16.382812 55.519531 -20.441406 55.8125 -25.078125 C 56.101562 -29.710938 56.441406 -34.59375 56.828125 -39.71875 C 54.210938 -39.425781 51.457031 -39.179688 48.5625 -38.984375 C 45.664062 -38.796875 42.671875 -38.609375 39.578125 -38.421875 C 39.097656 -32.234375 38.6875 -26.046875 38.34375 -19.859375 C 38.007812 -13.671875 37.84375 -7.726562 37.84375 -2.03125 C 37.84375 0 36.726562 1.015625 34.5 1.015625 C 31.3125 1.015625 28.023438 0.554688 24.640625 -0.359375 C 21.265625 -1.273438 18.222656 -2.429688 15.515625 -3.828125 C 12.804688 -5.234375 10.875 -6.664062 9.71875 -8.125 C 8.75 -9.375 8.265625 -10.96875 8.265625 -12.90625 C 8.265625 -16.957031 8.429688 -21.785156 8.765625 -27.390625 C 9.109375 -33.003906 9.617188 -38.898438 10.296875 -45.078125 C 8.742188 -47.304688 7.363281 -49.675781 6.15625 -52.1875 C 4.945312 -54.695312 4.34375 -56.582031 4.34375 -57.84375 C 4.34375 -59.289062 5.019531 -60.015625 6.375 -60.015625 L 11.890625 -60.015625 C 12.660156 -66.492188 13.429688 -72.628906 14.203125 -78.421875 C 14.972656 -84.222656 15.695312 -89.203125 16.375 -93.359375 C 17.050781 -97.515625 17.582031 -100.316406 17.96875 -101.765625 C 18.164062 -102.441406 18.53125 -103.066406 19.0625 -103.640625 C 19.59375 -104.222656 20.4375 -104.515625 21.59375 -104.515625 C 23.238281 -104.515625 25.582031 -104.320312 28.625 -103.9375 C 31.675781 -103.550781 34.648438 -103.09375 37.546875 -102.5625 C 40.441406 -102.03125 42.519531 -101.523438 43.78125 -101.046875 C 44.9375 -100.660156 45.78125 -100.128906 46.3125 -99.453125 C 46.84375 -98.773438 47.015625 -97.851562 46.828125 -96.6875 C 46.148438 -93.019531 45.351562 -88.09375 44.4375 -81.90625 C 43.519531 -75.71875 42.625 -68.859375 41.75 -61.328125 L 59.296875 -62.484375 C 60.066406 -68.671875 60.8125 -74.492188 61.53125 -79.953125 C 62.257812 -85.410156 62.9375 -90.070312 63.5625 -93.9375 C 64.195312 -97.800781 64.707031 -100.410156 65.09375 -101.765625 C 65.28125 -102.441406 65.640625 -103.066406 66.171875 -103.640625 C 66.703125 -104.222656 67.550781 -104.515625 68.71875 -104.515625 C 69.875 -104.515625 71.488281 -104.394531 73.5625 -104.15625 C 75.644531 -103.914062 77.84375 -103.625 80.15625 -103.28125 C 82.476562 -102.945312 84.609375 -102.585938 86.546875 -102.203125 C 88.484375 -101.816406 89.929688 -101.429688 90.890625 -101.046875 C 91.953125 -100.660156 92.773438 -100.128906 93.359375 -99.453125 C 93.941406 -98.773438 94.132812 -97.851562 93.9375 -96.6875 Z M 93.9375 -96.6875 "/></g></g></g><g fill="#000000" fill-opacity="1"><g transform="translate(159.70076, 220.571498)"><g><path d="M 93.9375 -96.6875 C 93.257812 -92.53125 92.410156 -86.898438 91.390625 -79.796875 C 90.378906 -72.703125 89.367188 -64.734375 88.359375 -55.890625 C 87.347656 -47.046875 86.523438 -37.984375 85.890625 -28.703125 C 85.265625 -19.421875 84.953125 -10.53125 84.953125 -2.03125 C 84.953125 0 83.789062 1.015625 81.46875 1.015625 C 78.28125 1.015625 74.992188 0.554688 71.609375 -0.359375 C 68.234375 -1.273438 65.210938 -2.429688 62.546875 -3.828125 C 59.890625 -5.234375 57.984375 -6.664062 56.828125 -8.125 C 55.859375 -9.375 55.375 -10.96875 55.375 -12.90625 C 55.375 -16.382812 55.519531 -20.441406 55.8125 -25.078125 C 56.101562 -29.710938 56.441406 -34.59375 56.828125 -39.71875 C 54.210938 -39.425781 51.457031 -39.179688 48.5625 -38.984375 C 45.664062 -38.796875 42.671875 -38.609375 39.578125 -38.421875 C 39.097656 -32.234375 38.6875 -26.046875 38.34375 -19.859375 C 38.007812 -13.671875 37.84375 -7.726562 37.84375 -2.03125 C 37.84375 0 36.726562 1.015625 34.5 1.015625 C 31.3125 1.015625 28.023438 0.554688 24.640625 -0.359375 C 21.265625 -1.273438 18.222656 -2.429688 15.515625 -3.828125 C 12.804688 -5.234375 10.875 -6.664062 9.71875 -8.125 C 8.75 -9.375 8.265625 -10.96875 8.265625 -12.90625 C 8.265625 -16.957031 8.429688 -21.785156 8.765625 -27.390625 C 9.109375 -33.003906 9.617188 -38.898438 10.296875 -45.078125 C 8.742188 -47.304688 7.363281 -49.675781 6.15625 -52.1875 C 4.945312 -54.695312 4.34375 -56.582031 4.34375 -57.84375 C 4.34375 -59.289062 5.019531 -60.015625 6.375 -60.015625 L 11.890625 -60.015625 C 12.660156 -66.492188 13.429688 -72.628906 14.203125 -78.421875 C 14.972656 -84.222656 15.695312 -89.203125 16.375 -93.359375 C 17.050781 -97.515625 17.582031 -100.316406 17.96875 -101.765625 C 18.164062 -102.441406 18.53125 -103.066406 19.0625 -103.640625 C 19.59375 -104.222656 20.4375 -104.515625 21.59375 -104.515625 C 23.238281 -104.515625 25.582031 -104.320312 28.625 -103.9375 C 31.675781 -103.550781 34.648438 -103.09375 37.546875 -102.5625 C 40.441406 -102.03125 42.519531 -101.523438 43.78125 -101.046875 C 44.9375 -100.660156 45.78125 -100.128906 46.3125 -99.453125 C 46.84375 -98.773438 47.015625 -97.851562 46.828125 -96.6875 C 46.148438 -93.019531 45.351562 -88.09375 44.4375 -81.90625 C 43.519531 -75.71875 42.625 -68.859375 41.75 -61.328125 L 59.296875 -62.484375 C 60.066406 -68.671875 60.8125 -74.492188 61.53125 -79.953125 C 62.257812 -85.410156 62.9375 -90.070312 63.5625 -93.9375 C 64.195312 -97.800781 64.707031 -100.410156 65.09375 -101.765625 C 65.28125 -102.441406 65.640625 -103.066406 66.171875 -103.640625 C 66.703125 -104.222656 67.550781 -104.515625 68.71875 -104.515625 C 69.875 -104.515625 71.488281 -104.394531 73.5625 -104.15625 C 75.644531 -103.914062 77.84375 -103.625 80.15625 -103.28125 C 82.476562 -102.945312 84.609375 -102.585938 86.546875 -102.203125 C 88.484375 -101.816406 89.929688 -101.429688 90.890625 -101.046875 C 91.953125 -100.660156 92.773438 -100.128906 93.359375 -99.453125 C 93.941406 -98.773438 94.132812 -97.851562 93.9375 -96.6875 Z M 93.9375 -96.6875 "/></g></g></g><g clip-path="url(#2d30ebae49)"><g clip-path="url(#7540476766)"><path fill="#ffffff" d="M 45.292969 136.792969 L 96.394531 136.792969 L 96.394531 187.5 L 45.292969 187.5 Z M 45.292969 136.792969 " fill-opacity="1" fill-rule="nonzero"/></g></g></svg>